<?xml version="1.0" encoding="UTF-8" standalone="no"?>
<!-- Created with Inkscape (http://www.inkscape.org/) -->

<svg
   version="1.1"
   id="svg2"
   xml:space="preserve"
   width="1024"
   height="1024"
   viewBox="0 0 1024 1024"
   sodipodi:docname="favicon.ai"
   xmlns:inkscape="http://www.inkscape.org/namespaces/inkscape"
   xmlns:sodipodi="http://sodipodi.sourceforge.net/DTD/sodipodi-0.dtd"
   xmlns="http://www.w3.org/2000/svg"
   xmlns:svg="http://www.w3.org/2000/svg"><defs
     id="defs6"><clipPath
       clipPathUnits="userSpaceOnUse"
       id="clipPath16"><path
         d="M 0,768 H 768 V 0 H 0 Z"
         id="path14" /></clipPath><linearGradient
       x1="0"
       y1="0"
       x2="1"
       y2="0"
       gradientUnits="userSpaceOnUse"
       gradientTransform="matrix(-81.272278,-216.41104,-216.41104,81.272278,396.65002,351.70572)"
       spreadMethod="pad"
       id="linearGradient40"><stop
         style="stop-opacity:1;stop-color:#ad99ff"
         offset="0"
         id="stop34" /><stop
         style="stop-opacity:1;stop-color:#ad99ff"
         offset="0.0000002"
         id="stop36" /><stop
         style="stop-opacity:1;stop-color:#1b0054"
         offset="1"
         id="stop38" /></linearGradient><linearGradient
       x1="0"
       y1="0"
       x2="1"
       y2="0"
       gradientUnits="userSpaceOnUse"
       gradientTransform="matrix(-86.378342,-230.00743,-230.00743,86.378342,392.08511,369.52835)"
       spreadMethod="pad"
       id="linearGradient62"><stop
         style="stop-opacity:1;stop-color:#ad99ff"
         offset="0"
         id="stop56" /><stop
         style="stop-opacity:1;stop-color:#ad99ff"
         offset="0.0000002"
         id="stop58" /><stop
         style="stop-opacity:1;stop-color:#1b0054"
         offset="1"
         id="stop60" /></linearGradient><clipPath
       clipPathUnits="userSpaceOnUse"
       id="clipPath72"><path
         d="M 0,768 H 768 V 0 H 0 Z"
         id="path70" /></clipPath></defs><sodipodi:namedview
     id="namedview4"
     pagecolor="#ffffff"
     bordercolor="#666666"
     borderopacity="1.0"
     inkscape:pageshadow="2"
     inkscape:pageopacity="0.0"
     inkscape:pagecheckerboard="0" /><g
     id="g8"
     inkscape:groupmode="layer"
     inkscape:label="favicon"
     transform="matrix(1.3333333,0,0,-1.3333333,0,1024)"><g
       id="g10"><g
         id="g12"
         clip-path="url(#clipPath16)"><g
           id="g18"
           transform="translate(384.0005,17)"><path
             d="M 0,0 H -0.001 C -202.689,0 -367,164.312 -367,367 v 0 c 0,202.688 164.311,367 366.999,367 H 0 c 202.688,0 367,-164.312 367,-367 v 0 C 367,164.312 202.688,0 0,0"
             style="fill:#141316;fill-opacity:1;fill-rule:nonzero;stroke:none"
             id="path20" /></g></g></g><g
       id="g22"><g
         id="g24"><g
           id="g30"><g
             id="g32"><path
               d="m 248.882,398.868 c 1.852,-0.925 25.179,-15.906 32.532,-19.957 v 0 c 17.7,-9.762 40.591,-20.004 68.681,-30.746 v 0 c 19.272,-7.466 34.335,-13.841 45.207,-19.096 v 0 c 10.844,-5.265 19.855,-11.843 27.017,-19.736 v 0 c 7.152,-7.901 10.529,-17.57 10.13,-29.024 v 0 c -0.139,-3.973 -0.662,-7.683 -1.569,-11.132 v 0 c -13.629,-4.95 -41.185,9.262 -41.185,9.262 v 0 c 22.786,-15.046 28.946,-24.195 27.774,-29.756 v 0 c -6.325,-4.918 -14.131,-7.779 -23.421,-8.587 v 0 c -0.369,0.002 -0.578,0.009 -0.578,0.009 v 0 l -0.003,-0.065 c -2.45,-0.189 -5.003,-0.239 -7.659,-0.146 v 0 c -16.117,0.565 -29.209,5.894 -39.258,16.025 v 0 c -4.19,4.213 -7.601,9.028 -10.235,14.444 v 0 c -7.845,16.129 -23.646,26.875 -41.57,27.501 v 0 l -63.085,2.202 c -9.682,0.339 -17.426,-8.107 -16.101,-17.705 v 0 c 0.014,-0.104 0.029,-0.208 0.043,-0.314 v 0 l 0.001,-0.015 -0.005,0.012 c 0,0 -2.777,-25.099 -2.258,-25.296 v 0 L 446.842,165.25 c 8.198,-3.213 17.419,-2.455 24.983,2.053 v 0 l 14.243,8.488 h -0.007 c 0.003,0.001 0.005,0.002 0.006,0.003 v 0 c 17.902,10.298 32.087,23.418 42.533,39.369 v 0 c 7.865,12.009 13.463,24.815 16.811,38.425 v 0 0.008 c 0.042,0.055 4.822,6.406 6.024,14.814 v 0 c 0.61,4.268 5.552,10.178 7.402,15.729 v 0 c -6.476,4.627 -327.533,126.758 -327.533,126.758 v 0 z m 140.276,-186.676 -16.006,6.875 c -10.659,4.608 -21.263,9.355 -31.894,14.037 v 0 c -10.566,4.81 -21.178,9.539 -31.716,14.423 v 0 l -15.795,7.347 c -5.237,2.507 -10.501,4.959 -15.719,7.523 v 0 c 5.385,-2.185 10.723,-4.471 16.089,-6.7 v 0 l 16.007,-6.884 c 10.659,-4.598 21.262,-9.353 31.893,-14.026 v 0 c 10.566,-4.802 21.179,-9.539 31.717,-14.415 v 0 l 15.794,-7.347 c 5.236,-2.516 10.501,-4.968 15.72,-7.531 v 0 c -5.386,2.184 -10.724,4.469 -16.09,6.698"
               style="fill:url(#linearGradient40);stroke:none"
               id="path42" /></g></g></g></g><g
       id="g44"><g
         id="g46"><g
           id="g52"><g
             id="g54"><path
               d="m 221.126,234.176 c 4.625,-6.476 37.966,-34.56 42.746,-38.434 v 0 c 31.791,-25.749 72.912,-42.037 123.417,-41.256 v 0 c 3.157,0.048 11.283,-0.38 20.931,-0.808 v 0 c 10.592,-0.47 23.02,-0.941 32.727,-0.78 v 0 c 2.399,0.04 2.996,3.351 0.757,4.217 v 0 l -227.98,88.165 c 0,0 2.775,-4.626 7.402,-11.104 m 116.108,-59.779 c -6.163,2.451 -12.278,5.005 -18.395,7.578 v 0 c -6.096,2.609 -12.184,5.227 -18.235,7.948 v 0 c -6.061,2.701 -12.075,5.514 -18.033,8.429 v 0 c 6.245,-2.258 12.445,-4.626 18.597,-7.097 v 0 c 6.162,-2.452 12.278,-5.006 18.393,-7.579 v 0 c 6.098,-2.599 12.186,-5.227 18.237,-7.947 v 0 c 6.06,-2.701 12.074,-5.514 18.033,-8.428 v 0 c -6.246,2.256 -12.445,4.616 -18.597,7.096"
               style="fill:url(#linearGradient62);stroke:none"
               id="path64" /></g></g></g></g><g
       id="g66"><g
         id="g68"
         clip-path="url(#clipPath72)"><g
           id="g74"
           transform="translate(530.0059,537.9219)"><path
             d="M 0,0 C -0.009,0.009 -0.009,0.019 -0.018,0.028 L 0.13,-0.056 Z m -77.275,41.978 c -5.413,2.137 -10.788,4.376 -16.155,6.634 -5.347,2.294 -10.696,4.598 -15.997,7.013 -5.311,2.387 -10.576,4.885 -15.794,7.485 5.496,-1.943 10.955,-3.997 16.359,-6.162 5.412,-2.137 10.788,-4.376 16.154,-6.634 5.357,-2.285 10.695,-4.598 15.997,-7.013 5.311,-2.387 10.575,-4.876 15.794,-7.485 -5.496,1.943 -10.955,3.997 -16.358,6.162 M 1.074,4.358 C 0.148,5.283 -8.66,14.359 -8.66,14.359 L -8.669,14.35 c -6.199,8.892 -13.564,17.025 -22.095,24.408 -28.664,24.778 -68.005,38.046 -118.06,39.794 -5.625,0.195 -11.139,0.222 -16.543,0.056 -2.193,0.518 -13.055,1.619 -15.831,1.619 -2.775,0 -7.402,0 -11.102,-0.925 -3.701,-0.926 -10.178,-1.851 -10.178,-1.851 L 0.926,-0.5 5.256,-2.063 C 6.338,-1.98 1.999,3.433 1.074,4.358"
             style="fill:#e6e6e6;fill-opacity:1;fill-rule:nonzero;stroke:none"
             id="path76" /></g><g
           id="g78"
           transform="translate(504.9971,334.9434)"><path
             d="m 0,0 c -5.107,2.063 -10.168,4.22 -15.229,6.403 -5.042,2.221 -10.076,4.451 -15.073,6.782 -4.996,2.313 -9.955,4.728 -14.858,7.253 5.19,-1.868 10.334,-3.848 15.441,-5.93 5.108,-2.064 10.169,-4.229 15.23,-6.403 C -9.446,5.895 -4.413,3.655 0.583,1.323 5.579,-0.98 10.539,-3.404 15.442,-5.931 10.252,-4.062 5.099,-2.091 0,0 m -133.761,65.415 -17.274,7.226 c -11.51,4.838 -22.955,9.817 -34.438,14.72 -11.417,5.052 -22.871,10.011 -34.261,15.118 l -17.071,7.698 c -5.662,2.628 -11.352,5.2 -16.996,7.874 5.81,-2.295 11.565,-4.7 17.357,-7.05 l 17.275,-7.217 c 11.509,-4.839 22.955,-9.826 34.437,-14.721 11.417,-5.042 22.872,-10.01 34.261,-15.118 l 17.071,-7.698 c 5.662,-2.627 11.353,-5.19 16.997,-7.873 -5.811,2.294 -11.566,4.7 -17.358,7.041 M -99,214.886 c -7.726,3.22 -15.414,6.542 -23.094,9.872 -7.661,3.378 -15.322,6.764 -22.936,10.252 -7.624,3.47 -15.193,7.041 -22.724,10.723 7.818,-3.025 15.581,-6.161 23.306,-9.4 7.726,-3.22 15.415,-6.541 23.094,-9.872 7.662,-3.377 15.322,-6.764 22.937,-10.252 7.624,-3.46 15.192,-7.041 22.724,-10.723 -7.819,3.025 -15.581,6.153 -23.307,9.4 M 51.989,-33.225 c -3.701,5.551 -8.327,14.804 -8.327,14.804 0,0 -1.284,2.926 -2.775,7.401 C 39.961,-8.243 38.11,-1.767 35.335,2.859 31.53,9.2 22.908,20.052 22.758,20.241 c -0.003,0.006 -0.006,0.013 -0.006,0.013 -12.084,17.153 -26.573,30.533 -43.44,40.137 -17.913,10.177 -41.118,20.641 -69.625,31.411 -19.679,7.902 -34.751,14.369 -45.178,19.412 -10.446,5.042 -19.042,11.39 -25.778,19.05 -6.727,7.661 -9.909,16.79 -9.548,27.376 4.923,19.521 47.937,0.659 47.937,0.659 -62.617,35.912 -6.724,38.003 -6.19,38.022 0.751,-0.002 1.508,-0.014 2.276,-0.041 14.841,-0.518 26.462,-5.283 34.862,-14.286 3.095,-3.319 5.728,-7.043 7.899,-11.171 8.079,-15.361 23.688,-25.289 41.033,-25.894 l 67.657,-2.362 c 8.805,-0.307 15.706,7.473 14.384,16.183 -0.77,5.071 -4.07,17.704 -5.586,23.388 -0.477,1.791 -1.782,3.241 -3.513,3.909 l -112.355,43.35 -48.542,18.73 -63.169,24.901 c 0,0 -0.654,-0.112 -4.626,-0.925 l -4.866,-2.091 c -1.055,-0.38 -2.101,-0.787 -3.146,-1.194 -24.324,-9.557 -43.616,-23.852 -57.864,-42.884 -14.268,-19.042 -21.854,-41.923 -22.789,-68.643 -0.842,-24.14 10.02,-66.534 12.559,-66.945 l 314.817,-123.571 13.851,-4.79 c 0,0 1.878,-0.761 -1.823,4.79"
             style="fill:#e6e6e6;fill-opacity:1;fill-rule:nonzero;stroke:none"
             id="path80" /></g></g></g></g></svg>
