<?xml version="1.0" encoding="utf-8"?>
<!-- Generator: Adobe Illustrator 22.0.0, SVG Export Plug-In . SVG Version: 6.00 Build 0)  -->
<svg version="1.1" id="Layer_1" xmlns="http://www.w3.org/2000/svg" xmlns:xlink="http://www.w3.org/1999/xlink" x="0px" y="0px"
	 width="576.49927px" height="493.5px" viewBox="0 0 576.49927 493.5" style="enable-background:new 0 0 576.49927 493.5;"
	 xml:space="preserve">
<g>
	<g>
		<path style="fill:#FFFFFF;" d="M448.95001,162.38c-0.37,0.16998-0.71002,0.38-1.03003,0.64001l-31.13995,24.31L371.56,222.65002
			l-15.15002,11.83997l0.01001,0.01001h-0.01996l-55.55005,43.37l-9.19,7.19l-8.82996,6.89001
			c-1,0.77997-2.29999,1.08997-3.54999,0.85999l-10.99005-2.09003L221.84003,281.88l-46.5-8.84998L73.5,253.65002
			c-0.87-0.17004-1.76001-0.15002-2.62,0.06l38.87-54.20001L218.78003,47.46997c1.28998-1.77997,3.67999-2.35999,5.62994-1.34998
			L448.95001,162.38z"/>
		<g>
			<path style="fill:#E6E6E6;" d="M457.04999,164.25v0.29999l-0.48999,0.90002c-0.69,1.26001-1.82001,2.22998-3.16998,2.71997
				l-0.85999,0.29999H451.88l-0.79999,0.15002l-1.04004-0.25c-0.37-0.08002-0.75995-0.21997-1.16998-0.40997l-0.15002-0.07001
				l-2.06-1.06L222.54999,50.78998l-149.88,209.01001c-0.89996,1.21002-2.06,1.98004-3.39996,2.31L69.12,262.14001
				c-0.42999,0.08997-0.83002,0.13-1.23999,0.13c-1.13,0-2.25-0.33002-3.22003-0.94l-0.19-0.14001
				c-1.23999-0.89001-2.06995-2.16998-2.35999-3.62c-0.34998-1.60999,0.01001-3.28998,1.01001-4.65002l41.09003-57.32001
				l109.06-152.07996c3.28998-4.53003,9.26996-5.97003,14.23999-3.44L453.90997,157.31l0.29004,0.15997
				c1.33002,0.70001,2.33997,1.93005,2.81,3.42004C457.34998,162.01001,457.35999,163.16998,457.04999,164.25z"/>
		</g>
	</g>
	<g>
		<path style="fill:#E6E6E6;" d="M184.58182,265.00092l8.71411,0.96667l64.67319,7.16437l42.87381,4.74646l2.53247,0.28146
			l53.49884-41.78688l2.04962-1.60062l12.63593-9.86852l44.95538-35.10892l0.2699-2.46605l15.9899-144.3167
			c0.4538-4.13755-2.52585-7.8622-6.66211-8.3278L212.71597,11.0453c-4.13707-0.45181-7.86052,2.52692-8.32787,6.66222
			L193.11182,119.5052l-6.25499,56.43829l-5.59535,50.49139l-2.59386,23.44832l-0.75681,6.79199
			C177.46135,260.81424,180.44432,264.53711,184.58182,265.00092z"/>
		<path style="fill:#FFFFFF;" d="M243.22314,138.50127l92.43665,10.23792l32.78134,3.62968
			c6.08682,0.67413,11.5676-3.71365,12.24173-9.80043c0.67413-6.08676-3.71359-11.56761-9.80042-12.24173l0,0l-40.77298-4.51565
			l-84.43829-9.36272c-6.09023-0.67143-11.57164,3.72142-12.24307,9.81166
			C232.75739,132.34377,237.14037,137.8214,243.22314,138.50127z"/>
		<path style="fill:#FFFFFF;" d="M237.9601,179.3916c0.23854,0.04263,0.47708,0.08533,0.71986,0.10872l107.30423,11.88744
			l17.91583,1.98875c6.0892,0.67355,11.57144-3.71666,12.24506-9.80586c0.67349-6.0892-3.71674-11.57144-9.80594-12.245l0,0
			l-25.9054-2.86609l-84.9995-9.41855l-14.30417-1.58508c-6.08569-0.67911-11.56969,3.70377-12.24878,9.78944
			c-0.64825,5.80881,3.32417,11.12328,9.0788,12.14612V179.3916z"/>
		<path style="fill:#FFFFFF;" d="M225.81564,215.64929c1.78218,2.95917,4.84184,4.91849,8.27519,5.29927l43.98085,4.87103
			l78.33023,8.67792l0.01727-0.00418l2.50476,0.27911l12.63593-9.86853c0.07803-0.74962,0.07864-1.50529,0.00186-2.25508
			c-0.54892-5.1859-4.6297-9.29276-9.81201-9.87473l-10.88095-1.20897l-43.16409-4.7766l-31.05753-3.44453l-40.11749-4.44615
			c-6.08713-0.67371-11.56781,3.71469-12.24162,9.80182c-0.26794,2.42145,0.26886,4.86374,1.52771,6.94957L225.81564,215.64929z"/>
		<path style="fill:#FFFFFF;" d="M287.59021,88.51899l22.99933,2.54728l10.15848,1.12819l15.34509,1.69826
			c6.08917,0.67356,11.57141-3.71666,12.24503-9.80586c0.67352-6.0892-3.71671-11.57143-9.80591-12.245l0,0l-48.49203-5.36721
			c-6.08734-0.67656-11.57059,3.70973-12.24722,9.79707c-0.67648,6.08739,3.70978,11.57066,9.79712,12.24722l0,0L287.59021,88.51899
			z"/>
	</g>
	<g>
		<path style="fill:#AD99FF;" d="M99.52624,149.91928l28.04018,115.83063l46.79977,8.89871l43.29118,8.242l46.4476,8.83792
			l14.84128,2.82431c1.75757,0.33221,3.57318-0.1073,4.98425-1.20657l11.90634-9.29932l7.53854-5.88699l53.49884-41.78687
			L322.85776,95.85533c-0.33603-1.39798-1.06863-2.66924-2.10974-3.66087c-1.85556-1.78317-4.49213-2.4973-6.99399-1.89426
			l-208.6727,50.5154C101.03511,141.79781,98.54919,145.87181,99.52624,149.91928z"/>
		<path style="fill:#FFFFFF;" d="M163.82272,242.06673c1.44563,5.94943,7.4359,9.60461,13.38777,8.16922l122.44438-29.64127
			c5.9473-1.44864,9.6011-7.43648,8.16922-13.38783c-0.03125-0.14177-0.0712-0.28148-0.11954-0.41835
			c-1.62488-5.72662-7.48184-9.14813-13.26825-7.75093l-122.44437,29.64122
			C166.04247,230.12448,162.38722,236.11475,163.82272,242.06673z"/>
		<path style="fill:#FFFFFF;" d="M174.36609,274.64862l43.29118,8.242l91.70406-22.19962
			c5.95279-1.4411,9.61032-7.43498,8.16934-13.38785c-1.4411-5.95285-7.43509-9.61037-13.38788-8.16928l-122.44438,29.64127
			c-2.55887,0.61453-4.81308,2.12521-6.35414,4.25839C174.97316,273.5433,174.64594,274.08359,174.36609,274.64862z"/>
		<path style="fill:#FFFFFF;" d="M264.10498,291.72855l14.84128,2.82431c1.75757,0.33221,3.57318-0.1073,4.98425-1.20657
			l11.90634-9.29932L264.10498,291.72855z"/>
		<path style="fill:#FFFFFF;" d="M188.49445,179.95598c1.44563,5.94943,7.4359,9.60468,13.38777,8.16924l47.42567-11.48079
			c5.94731-1.44859,9.6011-7.43648,8.16922-13.38783c-0.36935-1.53598-1.06625-2.97397-2.04297-4.21558
			c-2.67964-3.42776-7.11508-4.97353-11.3448-3.9537l-47.42567,11.48079c-5.95229,1.4418-9.60938,7.43512-8.16922,13.38782
			V179.95598z"/>
	</g>
	<g>
		<path style="fill:#FFFFFF;" d="M505.21002,388.76001l-379.41003,91.84998c-2.38,0.57001-4.77997-0.89001-5.34998-3.27997
			L68.03003,260.78998C67.71997,259.5,68.01001,258.13,68.81,257.08002c0.03998-0.08002,0.09003-0.15002,0.15997-0.20001
			c0.04004-0.07001,0.10004-0.12,0.15002-0.19c1.04999-1.08002,2.57001-1.57001,4.04999-1.29999l101.20001,19.25l43.28003,8.25
			l46.45996,8.83997l14.84003,2.83002c1.75,0.32001,3.57001-0.12,4.97998-1.21002l11.91003-9.29999l7.53998-5.89001L356.87,236.37
			l2.06-1.59998l12.62-9.87l44.97003-35.11005l32.5-25.38995c0.5-0.38,1.07001-0.66003,1.67999-0.81
			c0.16998-0.04004,0.33997-0.07001,0.51001-0.08002c0.15997-0.03003,0.31-0.04004,0.46997-0.04004
			c0.51001-0.00995,1.03003,0.07001,1.52002,0.24005c1.42999,0.5,2.5,1.67999,2.85999,3.14996l52.41998,216.54004
			C509.06,385.78003,507.59998,388.17999,505.21002,388.76001z"/>
		<g>
			<path style="fill:#E6E6E6;" d="M515.06,381.81l-52.41998-216.52002c-0.89001-3.73999-3.59003-6.71997-7.26001-7.98999
				c-1.32001-0.44-2.66998-0.64996-4.03998-0.59998c-1.62006,0.06-3.21002,0.46997-4.59003,1.19
				c-0.71997,0.33997-1.38,0.75-1.90997,1.19l-89.92004,70.21997l-1.71164,1.36668l-2.37833,1.84334l-70.88,55.33997
				L75.59998,248.96002l-0.29999-0.32001L73.78998,248.63c-1.17999-0.15002-2.37-0.12-3.52997,0.09998L70,248.73999
				l-1.71997,0.47003L68.12,249.35999c-1.46002,0.60004-2.79999,1.51001-3.94,2.70001
				c-0.52002,0.57001-0.98999,1.17999-1.45001,1.91998c-1.52997,2.53003-1.98999,5.52002-1.28998,8.41003L113.85999,478.94
				c1.23004,5.03998,5.71002,8.56,10.91003,8.56c0.90997,0,1.79999-0.10999,2.63-0.31L506.81,395.34003
				C512.79999,393.87,516.5,387.81,515.06,381.81z M278.03998,299.46997c3.14001,0.59003,6.40002-0.19995,8.97003-2.17999
				l72.91998-56.96997l4.03003-3.13l87.44995-68.31l52.08002,215.15002l-378.31,91.58997L73.09003,260.46002L278.03998,299.46997z"
				/>
		</g>
	</g>
	<path style="fill:#AD99FF;" d="M406.73813,347.9371c-1.7796-7.388,2.75684-14.82236,10.14081-16.61871l47.88547-11.5921
		c7.39606-1.7616,14.81976,2.80606,16.58136,10.20209c1.75238,7.35751-2.75912,14.75082-10.10345,16.55743l-47.88547,11.59207
		C415.96884,359.85748,408.53448,355.32098,406.73813,347.9371z"/>
</g>
</svg>
