<svg data-name="Layer 1" xmlns="http://www.w3.org/2000/svg" width="753.87469" height="703.82827" viewBox="0 0 753.87469 703.82827" xmlns:xlink="http://www.w3.org/1999/xlink"><path d="M578.47505,103.95771l-23.06843,12.58664L271.19846,271.61447,248.13,284.2011a48.1793,48.1793,0,0,0-19.1955,65.29607L440.57765,737.39072a48.17922,48.17922,0,0,0,65.296,19.19561l.05958-.03251L836.15907,576.37545l.05958-.03251a48.17924,48.17924,0,0,0,19.19553-65.296L643.77106,123.15338A48.17929,48.17929,0,0,0,578.47505,103.95771Z" transform="translate(-223.06266 -98.08587)" fill="#f2f2f2"/><path d="M585.11115,116.11916l-27.323,14.908L282.08828,281.455,254.7657,296.36278a34.30947,34.30947,0,0,0-13.66965,46.4988L452.73916,730.75513a34.30947,34.30947,0,0,0,46.4988,13.66952l.05958-.0325L829.5234,564.21377l.06-.03274a34.30935,34.30935,0,0,0,13.66926-46.49851L631.60954,129.789A34.30936,34.30936,0,0,0,585.11115,116.11916Z" transform="translate(-223.06266 -98.08587)" fill="#fff"/><path d="M589.66653,236.52147,466.505,303.72109a8.01411,8.01411,0,1,1-7.677-14.07012l123.16157-67.19962a8.01411,8.01411,0,1,1,7.677,14.07012Z" transform="translate(-223.06266 -98.08587)" fill="#f2f2f2"/><path d="M631.641,244.43106,479.45984,327.46442a8.01411,8.01411,0,0,1-7.677-14.07012l152.18119-83.03336a8.01411,8.01411,0,1,1,7.677,14.07012Z" transform="translate(-223.06266 -98.08587)" fill="#f2f2f2"/><path d="M415.87223,275.74837l-113.5479,61.95419a3.84082,3.84082,0,0,0-1.53151,5.21006L349.14436,431.53a3.84075,3.84075,0,0,0,5.21,1.5317l113.5479-61.95419a3.84075,3.84075,0,0,0,1.53153-5.21l-48.35154-88.61735A3.84081,3.84081,0,0,0,415.87223,275.74837Z" transform="translate(-223.06266 -98.08587)" fill="#f2f2f2"/><path d="M650.7763,348.96263,483.723,440.11051a8.01411,8.01411,0,1,1-7.677-14.07012l167.05327-91.14788a8.01411,8.01411,0,1,1,7.677,14.07012Z" transform="translate(-223.06266 -98.08587)" fill="#f2f2f2"/><path d="M692.7508,356.87223,496.67791,463.85384a8.01411,8.01411,0,0,1-7.677-14.07012L685.07384,342.80211a8.01411,8.01411,0,1,1,7.677,14.07012Z" transform="translate(-223.06266 -98.08587)" fill="#f2f2f2"/><circle cx="197.03853" cy="382.67177" r="34" fill="#f2f2f2"/><path d="M928.81234,263.78816H552.494a48.17927,48.17927,0,0,0-48.125,48.12512V753.78907a48.17922,48.17922,0,0,0,48.125,48.12506H928.81234a48.17922,48.17922,0,0,0,48.125-48.12506V311.91328A48.17927,48.17927,0,0,0,928.81234,263.78816Z" transform="translate(-223.06266 -98.08587)" fill="#e6e6e6"/><path d="M928.81283,277.64235H552.494a34.30947,34.30947,0,0,0-34.271,34.27093V753.78907A34.30947,34.30947,0,0,0,552.494,788.06H928.81283a34.30936,34.30936,0,0,0,34.27051-34.27088V311.91328A34.30937,34.30937,0,0,0,928.81283,277.64235Z" transform="translate(-223.06266 -98.08587)" fill="#fff"/><path d="M875.14319,385.51745H734.84151a8.01411,8.01411,0,0,1,0-16.02823H875.14319a8.01412,8.01412,0,1,1,0,16.02823Z" transform="translate(-223.06266 -98.08587)" fill="#ad99ff"/><path d="M908.20141,412.56508H734.84151a8.01411,8.01411,0,1,1,0-16.02822h173.3599a8.01411,8.01411,0,0,1,0,16.02822Z" transform="translate(-223.06266 -98.08587)" fill="#ad99ff"/><path d="M703.79234,336.71073H574.44224a3.8408,3.8408,0,0,0-3.83984,3.84v100.95a3.84075,3.84075,0,0,0,3.83984,3.84h129.3501a3.84076,3.84076,0,0,0,3.83984-3.84v-100.95A3.84081,3.84081,0,0,0,703.79234,336.71073Z" transform="translate(-223.06266 -98.08587)" fill="#e6e6e6"/><path d="M874.932,513.49157H684.63034a8.01411,8.01411,0,1,1,0-16.02823H874.932a8.01412,8.01412,0,0,1,0,16.02823Z" transform="translate(-223.06266 -98.08587)" fill="#e6e6e6"/><path d="M907.99023,540.5392H684.63034a8.01412,8.01412,0,1,1,0-16.02823H907.99023a8.01412,8.01412,0,1,1,0,16.02823Z" transform="translate(-223.06266 -98.08587)" fill="#e6e6e6"/><path d="M874.932,610.705H684.63034a8.01411,8.01411,0,1,1,0-16.02822H874.932a8.01411,8.01411,0,1,1,0,16.02822Z" transform="translate(-223.06266 -98.08587)" fill="#e6e6e6"/><path d="M907.99023,637.75267H684.63034a8.01411,8.01411,0,1,1,0-16.02823H907.99023a8.01411,8.01411,0,1,1,0,16.02823Z" transform="translate(-223.06266 -98.08587)" fill="#e6e6e6"/><circle cx="386.2497" cy="420.61448" r="34" fill="#e6e6e6"/><circle cx="386.2497" cy="518.61448" r="34" fill="#e6e6e6"/><path d="M874.932,708.705H684.63034a8.01411,8.01411,0,1,1,0-16.02822H874.932a8.01411,8.01411,0,1,1,0,16.02822Z" transform="translate(-223.06266 -98.08587)" fill="#e6e6e6"/><path d="M907.99023,735.75267H684.63034a8.01411,8.01411,0,1,1,0-16.02823H907.99023a8.01411,8.01411,0,1,1,0,16.02823Z" transform="translate(-223.06266 -98.08587)" fill="#e6e6e6"/><circle cx="386.2497" cy="616.61448" r="34" fill="#e6e6e6"/></svg>